# xmcd
#
# Track frame offsets:
#	150
#	1447
#	11637
#	16577
#	22352
#	30952
#	40182
#	45880
#	48865
#	52447
#	63952
#	73902
#	81025
#	86982
#	98252
#	112017
#	123510
#	131407
#	146560
#	154200
#	168507
#	180365
#	199767
#	201555
#	214759
#	224780
#	237867
#	247102
#	259737
#	270710
#	279255
#	289302
#	298982
#	303602
#
# Disc length: 4114 seconds
#
# Revision: 1
# Processed by: cddbd v1.5.2PL0 Copyright (c) Steve Scherf et al.
# Submitted via: EZCDAudioConverter 2.1.3.1
#
DISCID=03101022
DTITLE=Various Artist - Country Radio Shows, Vol. 2
DYEAR=1996
DGENRE=Country
TTITLE0=TAKE FIVE, Patsy Cline Show - Introduction
TTITLE1=TAKE FIVE, Patsy Cline Show - Crazy
TTITLE2=TAKE FIVE, Patsy Cline Show - Walkin' After Midnight
TTITLE3=TAKE FIVE, Patsy Cline Show - San Antonio Rose
TTITLE4=TAKE FIVE, Patsy Cline Show - I Love You So Much It Hurts
TTITLE5=TAKE FIVE, Patsy Cline Show - I Fall to Pieces
TTITLE6=TAKE FIVE, Patsy Cline Show - Marine Corps Advertisement
TTITLE7=TAKE FIVE, Patsy Cline Show - Lovin' in Vain
TTITLE8=TAKE FIVE, Patsy Cline Show - Closing Musical Theme (The Arine's Hymn)
TTITLE9=Jim Reeves, WCAY, Cayce, SC - I Love You More
TTITLE10=Jim Reeves, WCAY, Cayce, SC - Home
TTITLE11=Jim Reeves, WCAY, Cayce, SC - I'm Beinning to Forget You
TTITLE12=Jim Reeves, WCAY, Cayce, SC - Have I Told You Lately That I Love You
TTITLE13=Jim Reeves, WCAY, Cayce, SC - Just Call Me Lonesome
TTITLE14=Jim Reeves, WCAY, Cayce, SC - How's THW World Treating You
TTITLE15=Jim Reeves, WCAY, Cayce, SC - If Heartaches Are the Fashion
TTITLE16=Jim Reeves, WCAY, Cayce, SC - Till the End of the World
TTITLE17=Jim Reeves, WCAY, Cayce, SC - Making Believe
TTITLE18=Jim Reeves, WCAY, Cayce, SC - Oklahoma Hills
TTITLE19=Jim Reeves, WCAY, Cayce, SC - The Highway to Nowhere
TTITLE20=Jim Reeves, WCAY, Cayce, SC - I've Lived a Lot in My Time
TTITLE21=Jim Reeves, Interview with Smiley Burnette - Interview With Smiley Bu
TTITLE21=rnette
TTITLE22=The Faron Young Show (feat. Country Deputy Band) - Introduction (Tomm
TTITLE22=y Cutrer, Announcer)
TTITLE23=The Faron Young Show (feat. Country Deputy Band) - The Tips of My Fin
TTITLE23=gers
TTITLE24=The Faron Young Show (feat. Country Deputy Band) - King of the Road
TTITLE25=The Faron Young Show (feat. Country Deputy Band) - Almost Persuaded
TTITLE26=The Faron Young Show (feat. Country Deputy Band) - Live Fast, Love Ha
TTITLE26=rd, Die Young
TTITLE27=The Faron Young Show (feat. Country Deputy Band) - Apartment #9
TTITLE28=The Faron Young Show (feat. Country Deputy Band) - Crying Time
TTITLE29=The Faron Young Show (feat. Country Deputy Band) - Together Again
TTITLE30=The Faron Young Show (feat. Country Deputy Band) - Yonder Comes a Suc
TTITLE30=ker
TTITLE31=The Faron Young Show (feat. Country Deputy Band) - Invitation to the 
TTITLE31=Blues
TTITLE32=Bear Family Advertisement - Parl Beer Advertisement
TTITLE33=Faron Young - Sign off from Faron
EXTD=
EXTT0=
EXTT1=
EXTT2=
EXTT3=
EXTT4=
EXTT5=
EXTT6=
EXTT7=
EXTT8=
EXTT9=
EXTT10=
EXTT11=
EXTT12=
EXTT13=
EXTT14=
EXTT15=
EXTT16=
EXTT17=
EXTT18=
EXTT19=
EXTT20=
EXTT21=
EXTT22=
EXTT23=
EXTT24=
EXTT25=
EXTT26=
EXTT27=
EXTT28=
EXTT29=
EXTT30=
EXTT31=
EXTT32=
EXTT33=
PLAYORDER=
